<mxfile host="app.diagrams.net" modified="2022-10-26T19:21:45.428Z" agent="5.0 (Windows NT 10.0; Win64; x64) AppleWebKit/537.36 (KHTML, like Gecko) Chrome/106.0.0.0 Safari/537.36" etag="s4YmzjYqbDa6W-S1Sx8Y" version="20.5.1" type="github">
  <diagram name="Page-1" id="aaaa8250-4180-3840-79b5-4cada1eebb92">
    <mxGraphModel dx="3555" dy="3285" grid="1" gridSize="10" guides="1" tooltips="1" connect="1" arrows="1" fold="1" page="1" pageScale="1" pageWidth="850" pageHeight="1100" background="none" math="0" shadow="0">
      <root>
        <mxCell id="0" />
        <mxCell id="1" parent="0" />
        <mxCell id="w8WOdI5fvXLwLna76cSn-7" value="" style="group" vertex="1" connectable="0" parent="1">
          <mxGeometry x="40" y="1230" width="150" height="190" as="geometry" />
        </mxCell>
        <mxCell id="w8WOdI5fvXLwLna76cSn-2" value="" style="verticalLabelPosition=bottom;html=1;verticalAlign=top;strokeWidth=1;align=center;outlineConnect=0;dashed=0;outlineConnect=0;shape=mxgraph.aws3d.end_user;strokeColor=none;fillColor=#777777;aspect=fixed;fontFamily=Helvetica;fontSize=20;" vertex="1" parent="w8WOdI5fvXLwLna76cSn-7">
          <mxGeometry x="52" width="49" height="100.46" as="geometry" />
        </mxCell>
        <mxCell id="w8WOdI5fvXLwLna76cSn-3" value="" style="verticalLabelPosition=bottom;html=1;verticalAlign=top;strokeWidth=1;align=center;outlineConnect=0;dashed=0;outlineConnect=0;shape=mxgraph.aws3d.end_user;strokeColor=none;fillColor=#777777;aspect=fixed;fontFamily=Helvetica;fontSize=20;" vertex="1" parent="w8WOdI5fvXLwLna76cSn-7">
          <mxGeometry x="101" width="49" height="100.46" as="geometry" />
        </mxCell>
        <mxCell id="w8WOdI5fvXLwLna76cSn-4" value="" style="verticalLabelPosition=bottom;html=1;verticalAlign=top;strokeWidth=1;align=center;outlineConnect=0;dashed=0;outlineConnect=0;shape=mxgraph.aws3d.end_user;strokeColor=none;fillColor=#777777;aspect=fixed;fontFamily=Helvetica;fontSize=20;" vertex="1" parent="w8WOdI5fvXLwLna76cSn-7">
          <mxGeometry x="3" width="49" height="100.46" as="geometry" />
        </mxCell>
        <mxCell id="w8WOdI5fvXLwLna76cSn-5" value="&lt;font style=&quot;font-size: 50px;&quot;&gt;Users&lt;/font&gt;" style="text;html=1;align=center;verticalAlign=middle;resizable=0;points=[];autosize=1;strokeColor=none;fillColor=none;fontSize=20;fontFamily=Helvetica;" vertex="1" parent="w8WOdI5fvXLwLna76cSn-7">
          <mxGeometry y="120" width="150" height="70" as="geometry" />
        </mxCell>
        <mxCell id="w8WOdI5fvXLwLna76cSn-11" value="Application Load Balancer" style="verticalLabelPosition=bottom;html=1;verticalAlign=top;strokeWidth=1;align=center;outlineConnect=0;dashed=0;outlineConnect=0;shape=mxgraph.aws3d.elasticLoadBalancing;fillColor=#ECECEC;strokeColor=#5E5E5E;aspect=fixed;fontFamily=Helvetica;fontSize=25;" vertex="1" parent="1">
          <mxGeometry x="609.24" y="800" width="132" height="126.5" as="geometry" />
        </mxCell>
        <mxCell id="w8WOdI5fvXLwLna76cSn-12" value="" style="verticalLabelPosition=bottom;html=1;verticalAlign=top;strokeWidth=1;align=center;outlineConnect=0;dashed=0;outlineConnect=0;shape=mxgraph.aws3d.arrowNE;fillColor=#000000;aspect=fixed;strokeColor=#000000;fontFamily=Helvetica;fontSize=50;" vertex="1" parent="1">
          <mxGeometry x="139.24" y="900" width="437.5" height="250" as="geometry" />
        </mxCell>
        <mxCell id="w8WOdI5fvXLwLna76cSn-30" value="" style="verticalLabelPosition=bottom;html=1;verticalAlign=top;strokeWidth=1;align=center;outlineConnect=0;dashed=0;outlineConnect=0;shape=mxgraph.aws3d.arrowNE;fillColor=#000000;aspect=fixed;strokeColor=default;fontFamily=Helvetica;fontSize=25;" vertex="1" parent="1">
          <mxGeometry x="741.24" y="750" width="102.5" height="58.57" as="geometry" />
        </mxCell>
        <mxCell id="w8WOdI5fvXLwLna76cSn-26" value="Auto Scaling Group" style="verticalLabelPosition=bottom;html=1;verticalAlign=top;strokeWidth=1;align=center;outlineConnect=0;dashed=0;outlineConnect=0;shape=mxgraph.aws3d.application_server;fillColor=#ECECEC;strokeColor=#5E5E5E;aspect=fixed;fontFamily=Helvetica;fontSize=25;" vertex="1" parent="1">
          <mxGeometry x="843.74" y="610" width="178.55" height="180" as="geometry" />
        </mxCell>
        <mxCell id="w8WOdI5fvXLwLna76cSn-24" value="" style="outlineConnect=0;dashed=0;verticalLabelPosition=bottom;verticalAlign=top;align=center;html=1;shape=mxgraph.aws3.auto_scaling;fillColor=#F58534;gradientColor=none;strokeColor=default;strokeWidth=1;fontFamily=Helvetica;fontSize=25;" vertex="1" parent="1">
          <mxGeometry x="879.3665900499019" y="610" width="107.29774686224113" height="93.5" as="geometry" />
        </mxCell>
        <mxCell id="w8WOdI5fvXLwLna76cSn-34" value="" style="group" vertex="1" connectable="0" parent="1">
          <mxGeometry x="1098.69" y="767.57" width="178.54999999999995" height="180" as="geometry" />
        </mxCell>
        <mxCell id="w8WOdI5fvXLwLna76cSn-31" value="EC2 instance" style="verticalLabelPosition=bottom;html=1;verticalAlign=top;strokeWidth=1;align=center;outlineConnect=0;dashed=0;outlineConnect=0;shape=mxgraph.aws3d.application_server;fillColor=#ECECEC;strokeColor=#5E5E5E;aspect=fixed;fontFamily=Helvetica;fontSize=25;" vertex="1" parent="w8WOdI5fvXLwLna76cSn-34">
          <mxGeometry width="178.55" height="180" as="geometry" />
        </mxCell>
        <mxCell id="w8WOdI5fvXLwLna76cSn-33" value="" style="sketch=0;points=[[0,0,0],[0.25,0,0],[0.5,0,0],[0.75,0,0],[1,0,0],[0,1,0],[0.25,1,0],[0.5,1,0],[0.75,1,0],[1,1,0],[0,0.25,0],[0,0.5,0],[0,0.75,0],[1,0.25,0],[1,0.5,0],[1,0.75,0]];outlineConnect=0;fontColor=#232F3E;gradientColor=#F78E04;gradientDirection=north;fillColor=#D05C17;strokeColor=#ffffff;dashed=0;verticalLabelPosition=bottom;verticalAlign=top;align=center;html=1;fontSize=12;fontStyle=0;aspect=fixed;shape=mxgraph.aws4.resourceIcon;resIcon=mxgraph.aws4.ec2;strokeWidth=1;fontFamily=Helvetica;" vertex="1" parent="w8WOdI5fvXLwLna76cSn-34">
          <mxGeometry x="60.27999999999997" y="30" width="58" height="58" as="geometry" />
        </mxCell>
        <mxCell id="w8WOdI5fvXLwLna76cSn-35" value="" style="group" vertex="1" connectable="0" parent="1">
          <mxGeometry x="1440" y="970" width="178.54999999999995" height="180" as="geometry" />
        </mxCell>
        <mxCell id="w8WOdI5fvXLwLna76cSn-36" value="EC2 instance" style="verticalLabelPosition=bottom;html=1;verticalAlign=top;strokeWidth=1;align=center;outlineConnect=0;dashed=0;outlineConnect=0;shape=mxgraph.aws3d.application_server;fillColor=#ECECEC;strokeColor=#5E5E5E;aspect=fixed;fontFamily=Helvetica;fontSize=25;" vertex="1" parent="w8WOdI5fvXLwLna76cSn-35">
          <mxGeometry width="178.55" height="180" as="geometry" />
        </mxCell>
        <mxCell id="w8WOdI5fvXLwLna76cSn-37" value="" style="sketch=0;points=[[0,0,0],[0.25,0,0],[0.5,0,0],[0.75,0,0],[1,0,0],[0,1,0],[0.25,1,0],[0.5,1,0],[0.75,1,0],[1,1,0],[0,0.25,0],[0,0.5,0],[0,0.75,0],[1,0.25,0],[1,0.5,0],[1,0.75,0]];outlineConnect=0;fontColor=#232F3E;gradientColor=#F78E04;gradientDirection=north;fillColor=#D05C17;strokeColor=#ffffff;dashed=0;verticalLabelPosition=bottom;verticalAlign=top;align=center;html=1;fontSize=12;fontStyle=0;aspect=fixed;shape=mxgraph.aws4.resourceIcon;resIcon=mxgraph.aws4.ec2;strokeWidth=1;fontFamily=Helvetica;" vertex="1" parent="w8WOdI5fvXLwLna76cSn-35">
          <mxGeometry x="60.27999999999997" y="30" width="58" height="58" as="geometry" />
        </mxCell>
        <mxCell id="w8WOdI5fvXLwLna76cSn-38" value="" style="group" vertex="1" connectable="0" parent="1">
          <mxGeometry x="1773.42" y="1170" width="178.54999999999995" height="180" as="geometry" />
        </mxCell>
        <mxCell id="w8WOdI5fvXLwLna76cSn-39" value="EC2 instance" style="verticalLabelPosition=bottom;html=1;verticalAlign=top;strokeWidth=1;align=center;outlineConnect=0;dashed=0;outlineConnect=0;shape=mxgraph.aws3d.application_server;fillColor=#ECECEC;strokeColor=#5E5E5E;aspect=fixed;fontFamily=Helvetica;fontSize=25;" vertex="1" parent="w8WOdI5fvXLwLna76cSn-38">
          <mxGeometry width="178.55" height="180" as="geometry" />
        </mxCell>
        <mxCell id="w8WOdI5fvXLwLna76cSn-40" value="" style="sketch=0;points=[[0,0,0],[0.25,0,0],[0.5,0,0],[0.75,0,0],[1,0,0],[0,1,0],[0.25,1,0],[0.5,1,0],[0.75,1,0],[1,1,0],[0,0.25,0],[0,0.5,0],[0,0.75,0],[1,0.25,0],[1,0.5,0],[1,0.75,0]];outlineConnect=0;fontColor=#232F3E;gradientColor=#F78E04;gradientDirection=north;fillColor=#D05C17;strokeColor=#ffffff;dashed=0;verticalLabelPosition=bottom;verticalAlign=top;align=center;html=1;fontSize=12;fontStyle=0;aspect=fixed;shape=mxgraph.aws4.resourceIcon;resIcon=mxgraph.aws4.ec2;strokeWidth=1;fontFamily=Helvetica;" vertex="1" parent="w8WOdI5fvXLwLna76cSn-38">
          <mxGeometry x="60.27999999999997" y="30" width="58" height="58" as="geometry" />
        </mxCell>
        <mxCell id="w8WOdI5fvXLwLna76cSn-41" value="" style="verticalLabelPosition=bottom;html=1;verticalAlign=top;strokeWidth=1;align=center;outlineConnect=0;dashed=0;outlineConnect=0;shape=mxgraph.aws3d.dashedArrowlessEdge2;strokeColor=#C22000;aspect=fixed;fontFamily=Helvetica;fontSize=25;fillColor=default;" vertex="1" parent="1">
          <mxGeometry x="957.24" y="590" width="1228.89" height="700" as="geometry" />
        </mxCell>
        <mxCell id="w8WOdI5fvXLwLna76cSn-42" value="" style="verticalLabelPosition=bottom;html=1;verticalAlign=top;strokeWidth=1;align=center;outlineConnect=0;dashed=0;outlineConnect=0;shape=mxgraph.aws3d.dashedArrowlessEdge2;strokeColor=#C22000;aspect=fixed;fontFamily=Helvetica;fontSize=25;fillColor=default;" vertex="1" parent="1">
          <mxGeometry x="648.24" y="740" width="1228.9" height="700" as="geometry" />
        </mxCell>
        <mxCell id="w8WOdI5fvXLwLna76cSn-43" value="" style="verticalLabelPosition=bottom;html=1;verticalAlign=top;strokeWidth=1;align=center;outlineConnect=0;dashed=0;outlineConnect=0;shape=mxgraph.aws3d.dashedArrowlessEdge2;strokeColor=#5E824A;aspect=fixed;fontFamily=Helvetica;fontSize=25;fillColor=default;direction=north;rotation=35;" vertex="1" parent="1">
          <mxGeometry x="363.47" y="-39" width="683.8" height="1248.55" as="geometry" />
        </mxCell>
        <mxCell id="w8WOdI5fvXLwLna76cSn-44" value="" style="verticalLabelPosition=bottom;html=1;verticalAlign=top;strokeWidth=1;align=center;outlineConnect=0;dashed=0;outlineConnect=0;shape=mxgraph.aws3d.dashedArrowlessEdge2;strokeColor=#C22000;aspect=fixed;fontFamily=Helvetica;fontSize=25;fillColor=default;direction=north;rotation=35;" vertex="1" parent="1">
          <mxGeometry x="1951.97" y="1217.36" width="154.66" height="297.38" as="geometry" />
        </mxCell>
        <mxCell id="w8WOdI5fvXLwLna76cSn-45" value="" style="verticalLabelPosition=bottom;html=1;verticalAlign=top;strokeWidth=1;align=center;outlineConnect=0;dashed=0;outlineConnect=0;shape=mxgraph.aws3d.dashedArrowlessEdge2;strokeColor=#0242C2;aspect=fixed;fontFamily=Helvetica;fontSize=25;fillColor=default;direction=north;rotation=35;" vertex="1" parent="1">
          <mxGeometry x="1485.09" y="675.31" width="591.51" height="1080.03" as="geometry" />
        </mxCell>
        <mxCell id="w8WOdI5fvXLwLna76cSn-46" value="" style="verticalLabelPosition=bottom;html=1;verticalAlign=top;strokeWidth=1;align=center;outlineConnect=0;dashed=0;outlineConnect=0;shape=mxgraph.aws3d.dashedArrowlessEdge2;strokeColor=#0242C2;aspect=fixed;fontFamily=Helvetica;fontSize=25;fillColor=default;direction=north;rotation=35;" vertex="1" parent="1">
          <mxGeometry x="790" y="260" width="603.27" height="1101.5" as="geometry" />
        </mxCell>
        <mxCell id="w8WOdI5fvXLwLna76cSn-47" value="" style="verticalLabelPosition=bottom;html=1;verticalAlign=top;strokeWidth=1;align=center;outlineConnect=0;dashed=0;outlineConnect=0;shape=mxgraph.aws3d.dashedArrowlessEdge2;strokeColor=#0242C2;aspect=fixed;fontFamily=Helvetica;fontSize=25;fillColor=default;direction=north;rotation=35;" vertex="1" parent="1">
          <mxGeometry x="1363.44" y="595.74" width="590.57" height="1078.31" as="geometry" />
        </mxCell>
        <mxCell id="w8WOdI5fvXLwLna76cSn-48" value="" style="verticalLabelPosition=bottom;html=1;verticalAlign=top;strokeWidth=1;align=center;outlineConnect=0;dashed=0;outlineConnect=0;shape=mxgraph.aws3d.dashedArrowlessEdge2;strokeColor=#0242C2;aspect=fixed;fontFamily=Helvetica;fontSize=25;fillColor=default;direction=north;rotation=35;" vertex="1" parent="1">
          <mxGeometry x="1132.5" y="462.6" width="597.51" height="1090.98" as="geometry" />
        </mxCell>
        <mxCell id="w8WOdI5fvXLwLna76cSn-49" value="" style="verticalLabelPosition=bottom;html=1;verticalAlign=top;strokeWidth=1;align=center;outlineConnect=0;dashed=0;outlineConnect=0;shape=mxgraph.aws3d.dashedArrowlessEdge2;strokeColor=#0242C2;aspect=fixed;fontFamily=Helvetica;fontSize=25;fillColor=default;direction=north;rotation=35;" vertex="1" parent="1">
          <mxGeometry x="1017.97" y="380" width="603.27" height="1101.5" as="geometry" />
        </mxCell>
        <mxCell id="w8WOdI5fvXLwLna76cSn-50" value="" style="verticalLabelPosition=bottom;html=1;verticalAlign=top;strokeWidth=1;align=center;outlineConnect=0;dashed=0;outlineConnect=0;shape=mxgraph.aws3d.dashedArrowlessEdge2;strokeColor=#0242C2;aspect=fixed;fontFamily=Helvetica;fontSize=25;fillColor=default;direction=north;rotation=35;" vertex="1" parent="1">
          <mxGeometry x="1711.48" y="802.58" width="586.84" height="1071.5" as="geometry" />
        </mxCell>
        <mxCell id="w8WOdI5fvXLwLna76cSn-51" value="v" style="verticalLabelPosition=bottom;html=1;verticalAlign=top;strokeWidth=1;dashed=1;shape=mxgraph.aws3d.dashedArrowlessEdge;aspect=fixed;rounded=1;shadow=0;comic=0;fontFamily=Verdana;fontSize=12;fillColor=#82B366;strokeColor=#82B366;" vertex="1" parent="1">
          <mxGeometry x="530" y="1088.96" width="216.87" height="121.04" as="geometry" />
        </mxCell>
        <mxCell id="w8WOdI5fvXLwLna76cSn-52" value="" style="verticalLabelPosition=bottom;html=1;verticalAlign=top;strokeWidth=1;dashed=1;shape=mxgraph.aws3d.dashedArrowlessEdge;aspect=fixed;rounded=1;shadow=0;comic=0;fontFamily=Verdana;fontSize=12;fillColor=#82B366;strokeColor=#82B366;" vertex="1" parent="1">
          <mxGeometry x="1660" y="530" width="216.87" height="121.04" as="geometry" />
        </mxCell>
        <mxCell id="w8WOdI5fvXLwLna76cSn-54" value="" style="verticalLabelPosition=bottom;html=1;verticalAlign=top;strokeWidth=1;align=center;outlineConnect=0;dashed=0;outlineConnect=0;shape=mxgraph.aws3d.dashedArrowlessEdge2;strokeColor=#5E824A;aspect=fixed;fontFamily=Helvetica;fontSize=25;fillColor=default;" vertex="1" parent="1">
          <mxGeometry x="70" y="900.56" width="1456.15" height="829.44" as="geometry" />
        </mxCell>
        <mxCell id="w8WOdI5fvXLwLna76cSn-55" value="" style="verticalLabelPosition=bottom;html=1;verticalAlign=top;strokeWidth=1;align=center;outlineConnect=0;dashed=0;outlineConnect=0;shape=mxgraph.aws3d.dashedArrowlessEdge2;strokeColor=#5E824A;aspect=fixed;fontFamily=Helvetica;fontSize=25;fillColor=default;" vertex="1" parent="1">
          <mxGeometry x="1340" y="274.4" width="1449.41" height="825.6" as="geometry" />
        </mxCell>
        <mxCell id="w8WOdI5fvXLwLna76cSn-56" value="v" style="verticalLabelPosition=bottom;html=1;verticalAlign=top;strokeWidth=1;dashed=1;shape=mxgraph.aws3d.dashedArrowlessEdge;aspect=fixed;rounded=1;shadow=0;comic=0;fontFamily=Verdana;fontSize=12;fillColor=#82B366;strokeColor=#82B366;" vertex="1" parent="1">
          <mxGeometry x="872.37" y="1285" width="223.97" height="125" as="geometry" />
        </mxCell>
        <mxCell id="w8WOdI5fvXLwLna76cSn-57" value="v" style="verticalLabelPosition=bottom;html=1;verticalAlign=top;strokeWidth=1;dashed=1;shape=mxgraph.aws3d.dashedArrowlessEdge;aspect=fixed;rounded=1;shadow=0;comic=0;fontFamily=Verdana;fontSize=12;fillColor=#82B366;strokeColor=#82B366;" vertex="1" parent="1">
          <mxGeometry x="1230" y="1490" width="223.97" height="125" as="geometry" />
        </mxCell>
        <mxCell id="w8WOdI5fvXLwLna76cSn-58" value="" style="verticalLabelPosition=bottom;html=1;verticalAlign=top;strokeWidth=1;dashed=1;shape=mxgraph.aws3d.dashedArrowlessEdge;aspect=fixed;rounded=1;shadow=0;comic=0;fontFamily=Verdana;fontSize=12;fillColor=#82B366;strokeColor=#82B366;" vertex="1" parent="1">
          <mxGeometry x="1990" y="740" width="216.87" height="121.04" as="geometry" />
        </mxCell>
        <mxCell id="w8WOdI5fvXLwLna76cSn-59" value="" style="verticalLabelPosition=bottom;html=1;verticalAlign=top;strokeWidth=1;dashed=1;shape=mxgraph.aws3d.dashedArrowlessEdge;aspect=fixed;rounded=1;shadow=0;comic=0;fontFamily=Verdana;fontSize=12;fillColor=#82B366;strokeColor=#82B366;" vertex="1" parent="1">
          <mxGeometry x="2340" y="947.5699999999999" width="216.87" height="121.04" as="geometry" />
        </mxCell>
        <mxCell id="w8WOdI5fvXLwLna76cSn-61" value="" style="verticalLabelPosition=bottom;html=1;verticalAlign=top;strokeWidth=1;align=center;outlineConnect=0;dashed=0;outlineConnect=0;shape=mxgraph.aws3d.dashedArrowlessEdge2;strokeColor=#C22000;aspect=fixed;fontFamily=Helvetica;fontSize=25;fillColor=default;direction=north;rotation=35;" vertex="1" parent="1">
          <mxGeometry x="718.47" y="511.72" width="164.41" height="300.18" as="geometry" />
        </mxCell>
        <mxCell id="w8WOdI5fvXLwLna76cSn-62" value="" style="verticalLabelPosition=bottom;html=1;verticalAlign=top;strokeWidth=1;align=center;outlineConnect=0;dashed=0;outlineConnect=0;shape=mxgraph.aws3d.dashedArrowlessEdge2;strokeColor=#5E824A;aspect=fixed;fontFamily=Helvetica;fontSize=25;fillColor=default;direction=north;rotation=35;" vertex="1" parent="1">
          <mxGeometry x="1820" y="790" width="678.32" height="1238.55" as="geometry" />
        </mxCell>
        <mxCell id="w8WOdI5fvXLwLna76cSn-63" value="VPC &lt;br&gt;" style="text;html=1;align=center;verticalAlign=middle;resizable=0;points=[];autosize=1;strokeColor=none;fillColor=none;fontSize=50;fontFamily=Helvetica;fontColor=#5E824A;" vertex="1" parent="1">
          <mxGeometry x="295.24" y="847.57" width="130" height="70" as="geometry" />
        </mxCell>
        <mxCell id="w8WOdI5fvXLwLna76cSn-65" value="Availability Zone A" style="text;html=1;align=center;verticalAlign=middle;resizable=0;points=[];autosize=1;strokeColor=none;fillColor=none;fontSize=30;fontFamily=Helvetica;fontColor=#0242C2;" vertex="1" parent="1">
          <mxGeometry x="590" y="1068.61" width="270" height="50" as="geometry" />
        </mxCell>
        <mxCell id="w8WOdI5fvXLwLna76cSn-66" value="Availability Zone B" style="text;html=1;align=center;verticalAlign=middle;resizable=0;points=[];autosize=1;strokeColor=none;fillColor=none;fontSize=30;fontFamily=Helvetica;fontColor=#0242C2;" vertex="1" parent="1">
          <mxGeometry x="1020" y="1235" width="270" height="50" as="geometry" />
        </mxCell>
        <mxCell id="w8WOdI5fvXLwLna76cSn-67" value="Availability Zone C" style="text;html=1;align=center;verticalAlign=middle;resizable=0;points=[];autosize=1;strokeColor=none;fillColor=none;fontSize=30;fontFamily=Helvetica;fontColor=#0242C2;" vertex="1" parent="1">
          <mxGeometry x="1405.7400000000002" y="1420" width="270" height="50" as="geometry" />
        </mxCell>
        <mxCell id="w8WOdI5fvXLwLna76cSn-72" value="" style="group" vertex="1" connectable="0" parent="1">
          <mxGeometry x="1224.24" y="460.86" width="160" height="190.18" as="geometry" />
        </mxCell>
        <mxCell id="w8WOdI5fvXLwLna76cSn-69" value="&lt;font color=&quot;#5e824a&quot;&gt;Elastic File System&lt;/font&gt;" style="verticalLabelPosition=bottom;html=1;verticalAlign=top;strokeWidth=1;align=center;outlineConnect=0;dashed=0;outlineConnect=0;shape=mxgraph.aws3d.rds;fillColor=#ECECEC;strokeColor=#5E5E5E;aspect=fixed;fontFamily=Helvetica;fontSize=30;fontColor=#0242C2;" vertex="1" parent="w8WOdI5fvXLwLna76cSn-72">
          <mxGeometry width="143.3471794871795" height="155" as="geometry" />
        </mxCell>
        <mxCell id="w8WOdI5fvXLwLna76cSn-68" value="" style="sketch=0;points=[[0,0,0],[0.25,0,0],[0.5,0,0],[0.75,0,0],[1,0,0],[0,1,0],[0.25,1,0],[0.5,1,0],[0.75,1,0],[1,1,0],[0,0.25,0],[0,0.5,0],[0,0.75,0],[1,0.25,0],[1,0.5,0],[1,0.75,0]];outlineConnect=0;fontColor=#232F3E;gradientColor=#60A337;gradientDirection=north;fillColor=#277116;strokeColor=#ffffff;dashed=0;verticalLabelPosition=bottom;verticalAlign=top;align=center;html=1;fontSize=12;fontStyle=0;aspect=fixed;shape=mxgraph.aws4.resourceIcon;resIcon=mxgraph.aws4.efs_standard;strokeWidth=1;fontFamily=Helvetica;" vertex="1" parent="w8WOdI5fvXLwLna76cSn-72">
          <mxGeometry x="54.27082178108027" y="8.425641025641044" width="46.1025641025641" height="46.1025641025641" as="geometry" />
        </mxCell>
        <mxCell id="w8WOdI5fvXLwLna76cSn-73" value="" style="group" vertex="1" connectable="0" parent="1">
          <mxGeometry x="820" y="899.9999999999999" width="178.54999999999995" height="180" as="geometry" />
        </mxCell>
        <mxCell id="w8WOdI5fvXLwLna76cSn-74" value="Bastion" style="verticalLabelPosition=bottom;html=1;verticalAlign=top;strokeWidth=1;align=center;outlineConnect=0;dashed=0;outlineConnect=0;shape=mxgraph.aws3d.application_server;fillColor=#ECECEC;strokeColor=#5E5E5E;aspect=fixed;fontFamily=Helvetica;fontSize=25;" vertex="1" parent="w8WOdI5fvXLwLna76cSn-73">
          <mxGeometry width="178.55" height="180" as="geometry" />
        </mxCell>
        <mxCell id="w8WOdI5fvXLwLna76cSn-75" value="" style="sketch=0;points=[[0,0,0],[0.25,0,0],[0.5,0,0],[0.75,0,0],[1,0,0],[0,1,0],[0.25,1,0],[0.5,1,0],[0.75,1,0],[1,1,0],[0,0.25,0],[0,0.5,0],[0,0.75,0],[1,0.25,0],[1,0.5,0],[1,0.75,0]];outlineConnect=0;fontColor=#232F3E;gradientColor=#F78E04;gradientDirection=north;fillColor=#D05C17;strokeColor=#ffffff;dashed=0;verticalLabelPosition=bottom;verticalAlign=top;align=center;html=1;fontSize=12;fontStyle=0;aspect=fixed;shape=mxgraph.aws4.resourceIcon;resIcon=mxgraph.aws4.ec2;strokeWidth=1;fontFamily=Helvetica;" vertex="1" parent="w8WOdI5fvXLwLna76cSn-73">
          <mxGeometry x="60.27999999999997" y="30" width="58" height="58" as="geometry" />
        </mxCell>
        <mxCell id="w8WOdI5fvXLwLna76cSn-77" value="" style="verticalLabelPosition=bottom;html=1;verticalAlign=top;strokeWidth=1;align=center;outlineConnect=0;dashed=0;outlineConnect=0;shape=mxgraph.aws3d.dashedArrowlessEdge2;strokeColor=#82B366;aspect=fixed;fontFamily=Helvetica;fontSize=25;fillColor=default;" vertex="1" parent="1">
          <mxGeometry x="1022.29" y="560" width="1228.89" height="700" as="geometry" />
        </mxCell>
        <mxCell id="w8WOdI5fvXLwLna76cSn-78" value="" style="verticalLabelPosition=bottom;html=1;verticalAlign=top;strokeWidth=1;align=center;outlineConnect=0;dashed=0;outlineConnect=0;shape=mxgraph.aws3d.dashedArrowlessEdge2;strokeColor=#82B366;aspect=fixed;fontFamily=Helvetica;fontSize=25;fillColor=default;" vertex="1" parent="1">
          <mxGeometry x="1290" y="429.28" width="1228.89" height="700" as="geometry" />
        </mxCell>
        <mxCell id="w8WOdI5fvXLwLna76cSn-79" value="" style="verticalLabelPosition=bottom;html=1;verticalAlign=top;strokeWidth=1;align=center;outlineConnect=0;dashed=0;outlineConnect=0;shape=mxgraph.aws3d.dashedArrowlessEdge2;strokeColor=#82B366;aspect=fixed;fontFamily=Helvetica;fontSize=25;fillColor=default;direction=north;rotation=35;" vertex="1" parent="1">
          <mxGeometry x="1090" y="365.68" width="137.02" height="250.18" as="geometry" />
        </mxCell>
        <mxCell id="w8WOdI5fvXLwLna76cSn-80" value="" style="verticalLabelPosition=bottom;html=1;verticalAlign=top;strokeWidth=1;align=center;outlineConnect=0;dashed=0;outlineConnect=0;shape=mxgraph.aws3d.dashedArrowlessEdge2;strokeColor=#82B366;aspect=fixed;fontFamily=Helvetica;fontSize=25;fillColor=default;direction=north;rotation=35;" vertex="1" parent="1">
          <mxGeometry x="2309.18" y="1058.71" width="142.4" height="260" as="geometry" />
        </mxCell>
      </root>
    </mxGraphModel>
  </diagram>
</mxfile>
